<?xml version="1.0" encoding="UTF-8" ?>
<!DOCTYPE svg PUBLIC "-//W3C//DTD SVG 1.1//EN" "http://www.w3.org/Graphics/SVG/1.1/DTD/svg11.dtd">
<svg width="433pt" height="45pt" viewBox="0 0 433 45" version="1.1" xmlns="http://www.w3.org/2000/svg">
<g id="#ba381dff">
<path fill="#ba381d" opacity="1.00" d=" M 25.18 2.19 C 29.47 -0.76 36.22 0.39 38.88 5.02 C 44.85 14.81 50.17 24.99 56.21 34.73 C 60.23 34.60 64.24 34.72 68.26 34.70 C 68.29 23.59 68.21 12.47 68.23 1.36 C 72.44 1.41 76.65 1.31 80.86 1.45 C 84.13 1.55 86.64 4.01 88.71 6.30 C 95.77 14.55 102.45 23.13 109.64 31.27 C 109.94 21.28 109.54 11.29 109.82 1.31 C 129.50 1.43 149.18 1.26 168.86 1.39 C 174.48 1.53 181.16 5.67 180.40 12.02 C 180.05 15.55 181.57 19.92 178.49 22.59 C 180.81 25.94 180.19 30.16 180.29 33.99 C 180.81 40.08 174.42 44.21 168.95 44.36 C 155.10 44.53 141.25 44.26 127.41 44.49 C 127.05 35.62 127.35 26.74 127.26 17.86 C 141.01 17.72 154.77 18.06 168.52 17.69 C 168.28 15.54 169.33 12.77 168.02 11.02 C 152.54 10.82 137.05 11.06 121.56 10.91 C 121.28 22.03 121.54 33.17 121.44 44.30 C 116.96 44.24 112.48 44.48 108.01 44.19 C 104.01 43.95 101.82 40.22 99.43 37.53 C 92.91 29.92 86.82 21.93 80.07 14.51 C 80.00 24.45 80.09 34.38 80.04 44.32 C 59.63 44.33 39.23 44.34 18.82 44.32 C 20.66 41.11 22.54 37.93 24.39 34.73 C 30.65 34.67 36.91 34.73 43.17 34.70 C 39.04 27.93 35.55 20.73 30.93 14.29 C 30.01 14.95 29.28 15.77 28.72 16.75 C 23.41 25.87 18.18 35.05 12.72 44.07 C 8.51 44.52 4.23 44.00 0.00 44.38 L 0.00 44.05 C 6.70 32.98 12.92 21.60 19.43 10.42 C 21.18 7.58 22.50 4.31 25.18 2.19 M 139.01 27.44 C 138.91 29.87 138.92 32.30 139.00 34.73 C 148.86 34.56 158.75 35.06 168.58 34.52 C 168.25 32.32 169.72 28.91 167.78 27.49 C 158.19 27.39 148.60 27.50 139.01 27.44 Z" />
<path fill="#ba381d" opacity="1.00" d=" M 186.40 10.31 C 186.81 4.60 192.76 1.33 197.99 1.36 C 227.66 1.27 257.33 1.32 287.00 1.34 C 292.69 1.12 298.71 5.89 298.09 11.93 C 297.67 15.52 299.30 20.02 296.22 22.78 C 298.32 26.42 298.78 30.66 299.30 34.75 C 301.80 34.74 304.29 34.73 306.79 34.74 C 306.79 23.66 306.80 12.57 306.78 1.49 C 311.21 1.40 315.64 1.43 320.08 1.46 C 322.84 1.39 324.97 3.46 326.62 5.43 C 333.73 13.99 340.91 22.51 348.10 31.01 C 348.17 21.12 348.20 11.22 348.27 1.33 C 358.28 1.35 368.29 1.31 378.30 1.39 C 378.25 15.70 378.27 30.01 378.23 44.32 C 374.33 44.33 370.43 44.36 366.53 44.34 C 366.51 33.22 366.53 22.11 366.52 10.99 C 364.36 10.94 362.20 10.93 360.05 10.96 C 360.02 22.08 360.06 33.20 360.03 44.32 C 355.71 44.29 351.39 44.42 347.07 44.30 C 344.35 44.30 342.07 42.53 340.44 40.51 C 333.26 31.80 326.03 23.13 318.80 14.47 C 318.69 24.44 318.69 34.42 318.56 44.40 C 308.90 44.36 299.25 44.27 289.59 44.30 C 288.26 38.79 288.01 33.00 286.06 27.65 C 276.67 27.56 267.27 27.62 257.88 27.61 C 257.86 33.18 257.88 38.75 257.87 44.32 C 253.98 44.33 250.08 44.34 246.19 44.32 C 246.18 35.57 246.20 26.81 246.18 18.06 C 259.53 18.02 272.88 18.11 286.23 18.06 C 286.65 15.71 286.47 13.33 286.32 10.97 C 256.94 11.00 227.54 10.75 198.17 11.05 C 198.00 13.32 198.01 15.60 198.05 17.88 C 211.85 17.88 225.64 17.87 239.44 17.88 C 239.46 21.07 239.45 24.25 239.44 27.43 C 225.66 27.43 211.87 27.47 198.08 27.44 C 198.08 29.86 197.89 32.29 198.26 34.69 C 211.99 34.82 225.72 34.68 239.46 34.72 C 239.47 37.92 239.47 41.12 239.46 44.32 C 225.30 44.33 211.15 44.35 196.99 44.31 C 191.61 44.24 185.94 39.77 186.33 34.04 C 186.38 26.13 186.23 18.22 186.40 10.31 Z" />
<path fill="#ba381d" opacity="1.00" d=" M 385.14 10.02 C 385.49 5.13 390.21 1.60 394.90 1.45 C 407.43 1.34 419.97 1.37 432.51 1.35 C 432.50 4.53 432.52 7.72 432.50 10.90 C 420.69 10.99 408.88 10.73 397.09 11.04 C 396.93 18.90 396.72 26.82 397.20 34.66 C 408.95 34.73 420.70 34.66 432.45 34.69 C 432.47 37.90 432.47 41.11 432.46 44.32 C 419.98 44.31 407.50 44.38 395.03 44.29 C 389.72 44.18 385.06 39.40 385.08 34.09 C 385.08 26.07 384.96 18.04 385.14 10.02 Z" />
</g>
</svg>
